<svg xmlns="http://www.w3.org/2000/svg" width="261" height="140.5" viewBox="0 0 261 140.5">
  <g id="Gruppe_5" data-name="Gruppe 5" transform="translate(-196 -269.5)">
    <g id="Gruppe_4" data-name="Gruppe 4">
      <line id="Linie_2" data-name="Linie 2" x2="210.704" transform="translate(210.5 392.5)" fill="none" stroke="#707070" stroke-width="1"/>
      <line id="Linie_3" data-name="Linie 3" x1="5" y1="3" transform="translate(416.204 389.5)" fill="none" stroke="#707070" stroke-width="1"/>
      <line id="Linie_4" data-name="Linie 4" x1="5" y2="3" transform="translate(416.204 392.5)" fill="none" stroke="#707070" stroke-width="1"/>
    </g>
    <g id="Gruppe_3" data-name="Gruppe 3" transform="translate(0 -0.319)">
      <line id="Linie_1" data-name="Linie 1" y2="100.606" transform="translate(210.51 292.213)" fill="none" stroke="#707070" stroke-width="1"/>
      <g id="Gruppe_2" data-name="Gruppe 2" transform="translate(207.5 292.213)">
        <line id="Linie_5" data-name="Linie 5" x1="3" y2="5" fill="none" stroke="#707070" stroke-width="1"/>
        <g id="Gruppe_1" data-name="Gruppe 1" transform="translate(3.019)">
          <line id="Linie_6" data-name="Linie 6" x2="3" y2="5" fill="none" stroke="#707070" stroke-width="1"/>
        </g>
      </g>
    </g>
    <text id="y" transform="translate(207 288)" fill="#707070" font-size="15" font-family="SegoeUI, Segoe UI"><tspan x="0" y="0">y</tspan></text>
    <text id="x" transform="translate(425 396)" fill="#707070" font-size="15" font-family="SegoeUI, Segoe UI"><tspan x="0" y="0">x</tspan></text>
    <path id="Pfad_1" data-name="Pfad 1" d="M210.51,392.5c59.089-71.19,141.029-76.346,141.029-76.346" fill="none" stroke="#08ff00" stroke-width="2"/>
    <line id="Linie_7" data-name="Linie 7" y1="28" x2="21" transform="translate(210.5 364.5)" fill="none" stroke="red" stroke-width="1"/>
    <line id="Linie_8" data-name="Linie 8" x1="5" y2="3" transform="translate(226.5 364.5)" fill="none" stroke="red" stroke-width="1"/>
    <line id="Linie_9" data-name="Linie 9" x1="1" y2="6" transform="translate(230.5 364.5)" fill="none" stroke="red" stroke-width="1"/>
    <text id="v0" transform="translate(232 357)" fill="red" font-size="15" font-family="SegoeUI, Segoe UI"><tspan x="0" y="0">v</tspan><tspan y="0" font-size="5">0</tspan></text>
    <line id="Linie_10" data-name="Linie 10" y1="28" transform="translate(210.5 364.5)" fill="none" stroke="#f80" stroke-width="1"/>
    <line id="Linie_11" data-name="Linie 11" x2="21" transform="translate(210.5 392.5)" fill="none" stroke="#f80" stroke-width="1"/>
    <line id="Linie_12" data-name="Linie 12" x1="2" y2="5" transform="translate(208.5 364.5)" fill="none" stroke="#f80" stroke-width="1"/>
    <line id="Linie_13" data-name="Linie 13" x2="2" y2="5" transform="translate(210.5 364.5)" fill="none" stroke="#f80" stroke-width="1"/>
    <line id="Linie_14" data-name="Linie 14" x1="5" y1="2" transform="translate(226.5 390.5)" fill="none" stroke="#f80" stroke-width="1"/>
    <line id="Linie_15" data-name="Linie 15" x1="5" y2="2" transform="translate(226.5 392.5)" fill="none" stroke="#f80" stroke-width="1"/>
    <text id="v0y" transform="translate(196 364)" fill="#f80" font-size="15" font-family="SegoeUI, Segoe UI"><tspan x="0" y="0">v</tspan><tspan y="0" font-size="5">0y</tspan></text>
    <text id="v0x" transform="translate(234 404)" fill="#f80" font-size="15" font-family="SegoeUI, Segoe UI"><tspan x="0" y="0">v</tspan><tspan y="0" font-size="5">0x</tspan></text>
    <path id="Pfad_2" data-name="Pfad 2" d="M221,378.5a9.382,9.382,0,0,1,1.8,1.851c3.516,4.593,2.025,12.149,2.025,12.149" transform="translate(-0.339)" fill="none" stroke="#0800ff" stroke-width="1"/>
    <text id="α" transform="translate(226 385)" fill="#0800ff" font-size="15" font-family="SegoeUI, Segoe UI"><tspan x="0" y="0">α</tspan></text>
    <line id="Linie_16" data-name="Linie 16" x1="141" transform="translate(210.5 316.5)" fill="none" stroke="#707070" stroke-width="1" stroke-dasharray="3"/>
    <line id="Linie_17" data-name="Linie 17" y2="76" transform="translate(351.5 316.5)" fill="none" stroke="#707070" stroke-width="1" stroke-dasharray="3"/>
    <text id="sy" transform="translate(199 318)" fill="#707070" font-size="15" font-family="SegoeUI, Segoe UI"><tspan x="0" y="0">s</tspan><tspan y="0" font-size="5">y</tspan></text>
    <text id="sx" transform="translate(347 406)" fill="#707070" font-size="15" font-family="SegoeUI, Segoe UI"><tspan x="0" y="0">s</tspan><tspan y="0" font-size="5">x</tspan></text>
    <line id="Linie_18" data-name="Linie 18" y1="4" x2="31" transform="translate(351.5 312.5)" fill="none" stroke="red" stroke-width="1"/>
    <line id="Linie_19" data-name="Linie 19" x1="6" y1="2" transform="translate(376.5 310.5)" fill="none" stroke="red" stroke-width="1"/>
    <line id="Linie_20" data-name="Linie 20" x1="5" y2="3" transform="translate(377.5 312.5)" fill="none" stroke="red" stroke-width="1"/>
    <line id="Linie_21" data-name="Linie 21" y1="4" transform="translate(351.5 312.5)" fill="none" stroke="#f80" stroke-width="1"/>
    <line id="Linie_22" data-name="Linie 22" x1="2" y2="2" transform="translate(349.5 312.5)" fill="none" stroke="#f80" stroke-width="1"/>
    <line id="Linie_23" data-name="Linie 23" x2="2" y2="2" transform="translate(351.5 312.5)" fill="none" stroke="#f80" stroke-width="1"/>
    <line id="Linie_24" data-name="Linie 24" x2="31" transform="translate(351.5 316.5)" fill="none" stroke="#f80" stroke-width="1"/>
    <line id="Linie_25" data-name="Linie 25" x1="2" y1="2" transform="translate(380.5 314.5)" fill="none" stroke="#f80" stroke-width="1"/>
    <line id="Linie_26" data-name="Linie 26" x1="2" y2="2" transform="translate(380.5 316.5)" fill="none" stroke="#f80" stroke-width="1"/>
    <text id="v1" transform="translate(380 307)" fill="red" font-size="15" font-family="SegoeUI, Segoe UI"><tspan x="0" y="0">v</tspan><tspan y="0" font-size="5">1</tspan></text>
    <text id="v1y" transform="translate(342 308)" fill="#f80" font-size="15" font-family="SegoeUI, Segoe UI"><tspan x="0" y="0">v</tspan><tspan y="0" font-size="5">1y</tspan></text>
    <text id="v1x_v0x_" data-name="v1x = v0x " transform="translate(380 330)" fill="#f80" font-size="15" font-family="SegoeUI, Segoe UI"><tspan x="0" y="0">v</tspan><tspan y="0" font-size="5">1x</tspan><tspan y="0" xml:space="preserve"> = v</tspan><tspan y="0" font-size="5">0x</tspan><tspan y="0"> </tspan></text>
    <line id="Linie_27" data-name="Linie 27" y2="37" transform="translate(437.5 269.5)" fill="none" stroke="#00ffe5" stroke-width="3"/>
    <line id="Linie_28" data-name="Linie 28" x1="7" y1="14" transform="translate(430.5 292.5)" fill="none" stroke="#00ffe5" stroke-width="3"/>
    <line id="Linie_29" data-name="Linie 29" y1="14" x2="7" transform="translate(437.5 292.5)" fill="none" stroke="#00ffe5" stroke-width="3"/>
    <text id="g" transform="translate(448 311)" fill="#00ffe5" font-size="15" font-family="SegoeUI, Segoe UI"><tspan x="0" y="0">g</tspan></text>
  </g>
</svg>
