<svg xmlns="http://www.w3.org/2000/svg" xmlns:xlink="http://www.w3.org/1999/xlink" width="368.5" height="118.707" viewBox="0 0 368.5 118.707">
  <defs>
    <clipPath id="clip-path">
      <rect width="6.707" height="118.707" fill="none"/>
    </clipPath>
  </defs>
  <g id="Gruppe_1" data-name="Gruppe 1" transform="translate(-116 -122.146)">
    <g id="Rechteck_1" data-name="Rechteck 1" transform="translate(116 162)" fill="#fff" stroke="#707070" stroke-width="2">
      <rect width="158" height="28" stroke="none"/>
      <rect x="1" y="1" width="156" height="26" fill="none"/>
    </g>
    <line id="Linie_1" data-name="Linie 1" y2="112" transform="translate(139.5 122.5)" fill="none" stroke="#707070" stroke-width="2"/>
    <g id="Wiederholungsraster_1" data-name="Wiederholungsraster 1" transform="translate(133.146 122.146)" clip-path="url(#clip-path)">
      <g transform="translate(-133.146 -122.146)">
        <line id="Linie_2" data-name="Linie 2" x1="6" y2="6" transform="translate(133.5 122.5)" fill="none" stroke="#707070" stroke-width="1"/>
      </g>
      <g transform="translate(-133.146 -115.146)">
        <line id="Linie_2-2" data-name="Linie 2" x1="6" y2="6" transform="translate(133.5 122.5)" fill="none" stroke="#707070" stroke-width="1"/>
      </g>
      <g transform="translate(-133.146 -108.146)">
        <line id="Linie_2-3" data-name="Linie 2" x1="6" y2="6" transform="translate(133.5 122.5)" fill="none" stroke="#707070" stroke-width="1"/>
      </g>
      <g transform="translate(-133.146 -101.146)">
        <line id="Linie_2-4" data-name="Linie 2" x1="6" y2="6" transform="translate(133.5 122.5)" fill="none" stroke="#707070" stroke-width="1"/>
      </g>
      <g transform="translate(-133.146 -94.146)">
        <line id="Linie_2-5" data-name="Linie 2" x1="6" y2="6" transform="translate(133.5 122.5)" fill="none" stroke="#707070" stroke-width="1"/>
      </g>
      <g transform="translate(-133.146 -87.146)">
        <line id="Linie_2-6" data-name="Linie 2" x1="6" y2="6" transform="translate(133.5 122.5)" fill="none" stroke="#707070" stroke-width="1"/>
      </g>
      <g transform="translate(-133.146 -80.146)">
        <line id="Linie_2-7" data-name="Linie 2" x1="6" y2="6" transform="translate(133.5 122.5)" fill="none" stroke="#707070" stroke-width="1"/>
      </g>
      <g transform="translate(-133.146 -73.146)">
        <line id="Linie_2-8" data-name="Linie 2" x1="6" y2="6" transform="translate(133.5 122.5)" fill="none" stroke="#707070" stroke-width="1"/>
      </g>
      <g transform="translate(-133.146 -66.146)">
        <line id="Linie_2-9" data-name="Linie 2" x1="6" y2="6" transform="translate(133.5 122.5)" fill="none" stroke="#707070" stroke-width="1"/>
      </g>
      <g transform="translate(-133.146 -59.146)">
        <line id="Linie_2-10" data-name="Linie 2" x1="6" y2="6" transform="translate(133.5 122.5)" fill="none" stroke="#707070" stroke-width="1"/>
      </g>
      <g transform="translate(-133.146 -52.146)">
        <line id="Linie_2-11" data-name="Linie 2" x1="6" y2="6" transform="translate(133.5 122.5)" fill="none" stroke="#707070" stroke-width="1"/>
      </g>
      <g transform="translate(-133.146 -45.146)">
        <line id="Linie_2-12" data-name="Linie 2" x1="6" y2="6" transform="translate(133.5 122.5)" fill="none" stroke="#707070" stroke-width="1"/>
      </g>
      <g transform="translate(-133.146 -38.146)">
        <line id="Linie_2-13" data-name="Linie 2" x1="6" y2="6" transform="translate(133.5 122.5)" fill="none" stroke="#707070" stroke-width="1"/>
      </g>
      <g transform="translate(-133.146 -31.146)">
        <line id="Linie_2-14" data-name="Linie 2" x1="6" y2="6" transform="translate(133.5 122.5)" fill="none" stroke="#707070" stroke-width="1"/>
      </g>
      <g transform="translate(-133.146 -24.146)">
        <line id="Linie_2-15" data-name="Linie 2" x1="6" y2="6" transform="translate(133.5 122.5)" fill="none" stroke="#707070" stroke-width="1"/>
      </g>
      <g transform="translate(-133.146 -17.146)">
        <line id="Linie_2-16" data-name="Linie 2" x1="6" y2="6" transform="translate(133.5 122.5)" fill="none" stroke="#707070" stroke-width="1"/>
      </g>
      <g transform="translate(-133.146 -10.146)">
        <line id="Linie_2-17" data-name="Linie 2" x1="6" y2="6" transform="translate(133.5 122.5)" fill="none" stroke="#707070" stroke-width="1"/>
      </g>
    </g>
    <line id="Linie_3" data-name="Linie 3" y2="112" transform="translate(348.5 122.5)" fill="none" stroke="#707070" stroke-width="2"/>
    <g id="Wiederholungsraster_2" data-name="Wiederholungsraster 2" transform="translate(342.146 122.146)" clip-path="url(#clip-path)">
      <g transform="translate(-133.146 -122.146)">
        <line id="Linie_2-18" data-name="Linie 2" x1="6" y2="6" transform="translate(133.5 122.5)" fill="none" stroke="#707070" stroke-width="1"/>
      </g>
      <g transform="translate(-133.146 -115.146)">
        <line id="Linie_2-19" data-name="Linie 2" x1="6" y2="6" transform="translate(133.5 122.5)" fill="none" stroke="#707070" stroke-width="1"/>
      </g>
      <g transform="translate(-133.146 -108.146)">
        <line id="Linie_2-20" data-name="Linie 2" x1="6" y2="6" transform="translate(133.5 122.5)" fill="none" stroke="#707070" stroke-width="1"/>
      </g>
      <g transform="translate(-133.146 -101.146)">
        <line id="Linie_2-21" data-name="Linie 2" x1="6" y2="6" transform="translate(133.5 122.5)" fill="none" stroke="#707070" stroke-width="1"/>
      </g>
      <g transform="translate(-133.146 -94.146)">
        <line id="Linie_2-22" data-name="Linie 2" x1="6" y2="6" transform="translate(133.5 122.5)" fill="none" stroke="#707070" stroke-width="1"/>
      </g>
      <g transform="translate(-133.146 -87.146)">
        <line id="Linie_2-23" data-name="Linie 2" x1="6" y2="6" transform="translate(133.5 122.5)" fill="none" stroke="#707070" stroke-width="1"/>
      </g>
      <g transform="translate(-133.146 -80.146)">
        <line id="Linie_2-24" data-name="Linie 2" x1="6" y2="6" transform="translate(133.5 122.5)" fill="none" stroke="#707070" stroke-width="1"/>
      </g>
      <g transform="translate(-133.146 -73.146)">
        <line id="Linie_2-25" data-name="Linie 2" x1="6" y2="6" transform="translate(133.5 122.5)" fill="none" stroke="#707070" stroke-width="1"/>
      </g>
      <g transform="translate(-133.146 -66.146)">
        <line id="Linie_2-26" data-name="Linie 2" x1="6" y2="6" transform="translate(133.5 122.5)" fill="none" stroke="#707070" stroke-width="1"/>
      </g>
      <g transform="translate(-133.146 -59.146)">
        <line id="Linie_2-27" data-name="Linie 2" x1="6" y2="6" transform="translate(133.5 122.5)" fill="none" stroke="#707070" stroke-width="1"/>
      </g>
      <g transform="translate(-133.146 -52.146)">
        <line id="Linie_2-28" data-name="Linie 2" x1="6" y2="6" transform="translate(133.5 122.5)" fill="none" stroke="#707070" stroke-width="1"/>
      </g>
      <g transform="translate(-133.146 -45.146)">
        <line id="Linie_2-29" data-name="Linie 2" x1="6" y2="6" transform="translate(133.5 122.5)" fill="none" stroke="#707070" stroke-width="1"/>
      </g>
      <g transform="translate(-133.146 -38.146)">
        <line id="Linie_2-30" data-name="Linie 2" x1="6" y2="6" transform="translate(133.5 122.5)" fill="none" stroke="#707070" stroke-width="1"/>
      </g>
      <g transform="translate(-133.146 -31.146)">
        <line id="Linie_2-31" data-name="Linie 2" x1="6" y2="6" transform="translate(133.5 122.5)" fill="none" stroke="#707070" stroke-width="1"/>
      </g>
      <g transform="translate(-133.146 -24.146)">
        <line id="Linie_2-32" data-name="Linie 2" x1="6" y2="6" transform="translate(133.5 122.5)" fill="none" stroke="#707070" stroke-width="1"/>
      </g>
      <g transform="translate(-133.146 -17.146)">
        <line id="Linie_2-33" data-name="Linie 2" x1="6" y2="6" transform="translate(133.5 122.5)" fill="none" stroke="#707070" stroke-width="1"/>
      </g>
      <g transform="translate(-133.146 -10.146)">
        <line id="Linie_2-34" data-name="Linie 2" x1="6" y2="6" transform="translate(133.5 122.5)" fill="none" stroke="#707070" stroke-width="1"/>
      </g>
    </g>
    <line id="Linie_4" data-name="Linie 4" x2="163" transform="translate(321.5 176.5)" fill="none" stroke="#707070" stroke-width="3"/>
  </g>
</svg>
