<svg xmlns="http://www.w3.org/2000/svg" xmlns:xlink="http://www.w3.org/1999/xlink" width="199" height="108.5" viewBox="0 0 199 108.5">
  <defs>
    <clipPath id="clip-path">
      <rect width="29.8" height="4.6" fill="none"/>
    </clipPath>
  </defs>
  <g id="Gruppe_1" data-name="Gruppe 1" transform="translate(-246 -243)">
    <line id="Linie_1" data-name="Linie 1" x2="160" transform="translate(265.5 309.5)" fill="none" stroke="#707070" stroke-width="1"/>
    <line id="Linie_2" data-name="Linie 2" x1="6" y2="9" transform="translate(259.5 309.5)" fill="none" stroke="#707070" stroke-width="1"/>
    <line id="Linie_3" data-name="Linie 3" x2="6" y2="9" transform="translate(265.5 309.5)" fill="none" stroke="#707070" stroke-width="1"/>
    <line id="Linie_4" data-name="Linie 4" x2="28" transform="translate(251.5 318.5)" fill="none" stroke="#707070" stroke-width="1"/>
    <line id="Linie_5" data-name="Linie 5" x2="28" transform="translate(251.5 321.5)" fill="none" stroke="#707070" stroke-width="1"/>
    <g id="Wiederholungsraster_1" data-name="Wiederholungsraster 1" transform="translate(249.1 321.2)" clip-path="url(#clip-path)">
      <g transform="translate(-249.1 -321.2)">
        <line id="Linie_6" data-name="Linie 6" x1="3" y2="4" transform="translate(249.5 321.5)" fill="none" stroke="#707070" stroke-width="1"/>
      </g>
      <g transform="translate(-245.1 -321.2)">
        <line id="Linie_6-2" data-name="Linie 6" x1="3" y2="4" transform="translate(249.5 321.5)" fill="none" stroke="#707070" stroke-width="1"/>
      </g>
      <g transform="translate(-241.1 -321.2)">
        <line id="Linie_6-3" data-name="Linie 6" x1="3" y2="4" transform="translate(249.5 321.5)" fill="none" stroke="#707070" stroke-width="1"/>
      </g>
      <g transform="translate(-237.1 -321.2)">
        <line id="Linie_6-4" data-name="Linie 6" x1="3" y2="4" transform="translate(249.5 321.5)" fill="none" stroke="#707070" stroke-width="1"/>
      </g>
      <g transform="translate(-233.1 -321.2)">
        <line id="Linie_6-5" data-name="Linie 6" x1="3" y2="4" transform="translate(249.5 321.5)" fill="none" stroke="#707070" stroke-width="1"/>
      </g>
      <g transform="translate(-229.1 -321.2)">
        <line id="Linie_6-6" data-name="Linie 6" x1="3" y2="4" transform="translate(249.5 321.5)" fill="none" stroke="#707070" stroke-width="1"/>
      </g>
      <g transform="translate(-225.1 -321.2)">
        <line id="Linie_6-7" data-name="Linie 6" x1="3" y2="4" transform="translate(249.5 321.5)" fill="none" stroke="#707070" stroke-width="1"/>
      </g>
      <g transform="translate(-221.1 -321.2)">
        <line id="Linie_6-8" data-name="Linie 6" x1="3" y2="4" transform="translate(249.5 321.5)" fill="none" stroke="#707070" stroke-width="1"/>
      </g>
    </g>
    <line id="Linie_7" data-name="Linie 7" x1="6" y2="9" transform="translate(419.5 309.5)" fill="none" stroke="#707070" stroke-width="1"/>
    <line id="Linie_8" data-name="Linie 8" x2="6" y2="9" transform="translate(425.5 309.5)" fill="none" stroke="#707070" stroke-width="1"/>
    <line id="Linie_9" data-name="Linie 9" x2="28" transform="translate(411.5 318.5)" fill="none" stroke="#707070" stroke-width="1"/>
    <g id="Wiederholungsraster_2" data-name="Wiederholungsraster 2" transform="translate(410.1 318.2)" clip-path="url(#clip-path)">
      <g transform="translate(-249.1 -321.2)">
        <line id="Linie_6-9" data-name="Linie 6" x1="3" y2="4" transform="translate(249.5 321.5)" fill="none" stroke="#707070" stroke-width="1"/>
      </g>
      <g transform="translate(-245.1 -321.2)">
        <line id="Linie_6-10" data-name="Linie 6" x1="3" y2="4" transform="translate(249.5 321.5)" fill="none" stroke="#707070" stroke-width="1"/>
      </g>
      <g transform="translate(-241.1 -321.2)">
        <line id="Linie_6-11" data-name="Linie 6" x1="3" y2="4" transform="translate(249.5 321.5)" fill="none" stroke="#707070" stroke-width="1"/>
      </g>
      <g transform="translate(-237.1 -321.2)">
        <line id="Linie_6-12" data-name="Linie 6" x1="3" y2="4" transform="translate(249.5 321.5)" fill="none" stroke="#707070" stroke-width="1"/>
      </g>
      <g transform="translate(-233.1 -321.2)">
        <line id="Linie_6-13" data-name="Linie 6" x1="3" y2="4" transform="translate(249.5 321.5)" fill="none" stroke="#707070" stroke-width="1"/>
      </g>
      <g transform="translate(-229.1 -321.2)">
        <line id="Linie_6-14" data-name="Linie 6" x1="3" y2="4" transform="translate(249.5 321.5)" fill="none" stroke="#707070" stroke-width="1"/>
      </g>
      <g transform="translate(-225.1 -321.2)">
        <line id="Linie_6-15" data-name="Linie 6" x1="3" y2="4" transform="translate(249.5 321.5)" fill="none" stroke="#707070" stroke-width="1"/>
      </g>
      <g transform="translate(-221.1 -321.2)">
        <line id="Linie_6-16" data-name="Linie 6" x1="3" y2="4" transform="translate(249.5 321.5)" fill="none" stroke="#707070" stroke-width="1"/>
      </g>
    </g>
    <text id="A" transform="translate(246 304)" fill="#707070" font-size="20" font-family="SegoeUI, Segoe UI"><tspan x="0" y="0">A</tspan></text>
    <text id="B" transform="translate(433 303)" fill="#707070" font-size="20" font-family="SegoeUI, Segoe UI"><tspan x="0" y="0">B</tspan></text>
    <line id="Linie_10" data-name="Linie 10" y1="47" transform="translate(310.5 262.5)" fill="none" stroke="red" stroke-width="1"/>
    <line id="Linie_11" data-name="Linie 11" x1="4" y1="7" transform="translate(306.5 301.5)" fill="none" stroke="red" stroke-width="1"/>
    <line id="Linie_12" data-name="Linie 12" y1="7" x2="4" transform="translate(310.5 301.5)" fill="none" stroke="red" stroke-width="1"/>
    <text id="F" transform="translate(287 265)" fill="red" font-size="20" font-family="SegoeUI, Segoe UI"><tspan x="0" y="0">F</tspan></text>
    <line id="Linie_13" data-name="Linie 13" y2="25" transform="translate(310.5 309.5)" fill="none" stroke="#707070" stroke-width="0.5"/>
    <line id="Linie_14" data-name="Linie 14" x2="115" transform="translate(310.5 332.5)" fill="none" stroke="#707070" stroke-width="0.5"/>
    <line id="Linie_15" data-name="Linie 15" y2="42" transform="translate(425.5 309.5)" fill="none" stroke="#707070" stroke-width="0.5"/>
    <text id="a-2" data-name="a" transform="translate(365 329)" fill="#707070" font-size="10" font-family="SegoeUI, Segoe UI"><tspan x="0" y="0">a</tspan></text>
    <line id="Linie_16" data-name="Linie 16" y2="40.889" transform="translate(265.5 310.5)" fill="none" stroke="#707070" stroke-width="0.5"/>
    <line id="Linie_17" data-name="Linie 17" x2="160" transform="translate(265.5 349.389)" fill="none" stroke="#707070" stroke-width="0.5"/>
    <text id="l" transform="translate(349 346)" fill="#707070" font-size="10" font-family="SegoeUI, Segoe UI"><tspan x="0" y="0">l</tspan></text>
  </g>
</svg>
