<svg xmlns="http://www.w3.org/2000/svg" xmlns:xlink="http://www.w3.org/1999/xlink" width="501.558" height="193.826" viewBox="0 0 501.558 193.826">
  <defs>
    <clipPath id="clip-path">
      <rect width="44.707" height="5.707" fill="none"/>
    </clipPath>
  </defs>
  <g id="Gruppe_2" data-name="Gruppe 2" transform="translate(-307.146 -127)">
    <g id="Gruppe_1" data-name="Gruppe 1">
      <line id="Linie_1" data-name="Linie 1" x2="41" transform="translate(311.5 197.5)" fill="none" stroke="#707070" stroke-width="1"/>
      <line id="Linie_2" data-name="Linie 2" y1="10" x2="10" transform="translate(322.5 187.5)" fill="none" stroke="#707070" stroke-width="1"/>
      <line id="Linie_3" data-name="Linie 3" x1="10" y1="10" transform="translate(332.5 187.5)" fill="none" stroke="#707070" stroke-width="1"/>
      <g id="Wiederholungsraster_1" data-name="Wiederholungsraster 1" transform="translate(307.146 197.146)" clip-path="url(#clip-path)">
        <g transform="translate(-307.146 -197.146)">
          <line id="Linie_4" data-name="Linie 4" x1="5" y2="5" transform="translate(307.5 197.5)" fill="none" stroke="#707070" stroke-width="1"/>
        </g>
        <g transform="translate(-302.146 -197.146)">
          <line id="Linie_4-2" data-name="Linie 4" x1="5" y2="5" transform="translate(307.5 197.5)" fill="none" stroke="#707070" stroke-width="1"/>
        </g>
        <g transform="translate(-297.146 -197.146)">
          <line id="Linie_4-3" data-name="Linie 4" x1="5" y2="5" transform="translate(307.5 197.5)" fill="none" stroke="#707070" stroke-width="1"/>
        </g>
        <g transform="translate(-292.146 -197.146)">
          <line id="Linie_4-4" data-name="Linie 4" x1="5" y2="5" transform="translate(307.5 197.5)" fill="none" stroke="#707070" stroke-width="1"/>
        </g>
        <g transform="translate(-287.146 -197.146)">
          <line id="Linie_4-5" data-name="Linie 4" x1="5" y2="5" transform="translate(307.5 197.5)" fill="none" stroke="#707070" stroke-width="1"/>
        </g>
        <g transform="translate(-282.146 -197.146)">
          <line id="Linie_4-6" data-name="Linie 4" x1="5" y2="5" transform="translate(307.5 197.5)" fill="none" stroke="#707070" stroke-width="1"/>
        </g>
        <g transform="translate(-277.146 -197.146)">
          <line id="Linie_4-7" data-name="Linie 4" x1="5" y2="5" transform="translate(307.5 197.5)" fill="none" stroke="#707070" stroke-width="1"/>
        </g>
        <g transform="translate(-272.146 -197.146)">
          <line id="Linie_4-8" data-name="Linie 4" x1="5" y2="5" transform="translate(307.5 197.5)" fill="none" stroke="#707070" stroke-width="1"/>
        </g>
        <g transform="translate(-267.146 -197.146)">
          <line id="Linie_4-9" data-name="Linie 4" x1="5" y2="5" transform="translate(307.5 197.5)" fill="none" stroke="#707070" stroke-width="1"/>
        </g>
      </g>
      <g id="Rechteck_1" data-name="Rechteck 1" transform="translate(332 166)" fill="#fff" stroke="#707070" stroke-width="1">
        <rect width="137" height="22" stroke="none"/>
        <rect x="0.5" y="0.5" width="136" height="21" fill="none"/>
      </g>
      <line id="Linie_5" data-name="Linie 5" x2="70" y2="82" transform="translate(468.5 187.5)" fill="none" stroke="#707070" stroke-width="3"/>
      <g id="Ellipse_1" data-name="Ellipse 1" transform="translate(464 183)" fill="#fff" stroke="#707070" stroke-width="3">
        <circle cx="4.5" cy="4.5" r="4.5" stroke="none"/>
        <circle cx="4.5" cy="4.5" r="3" fill="none"/>
      </g>
      <line id="Linie_6" data-name="Linie 6" x2="41" transform="translate(517.5 279.5)" fill="none" stroke="#707070" stroke-width="1"/>
      <line id="Linie_7" data-name="Linie 7" y1="10" x2="10" transform="translate(528.5 269.5)" fill="none" stroke="#707070" stroke-width="1"/>
      <line id="Linie_8" data-name="Linie 8" x1="10" y1="10" transform="translate(538.5 269.5)" fill="none" stroke="#707070" stroke-width="1"/>
      <g id="Wiederholungsraster_2" data-name="Wiederholungsraster 2" transform="translate(513.146 279.146)" clip-path="url(#clip-path)">
        <g transform="translate(-307.146 -197.146)">
          <line id="Linie_4-10" data-name="Linie 4" x1="5" y2="5" transform="translate(307.5 197.5)" fill="none" stroke="#707070" stroke-width="1"/>
        </g>
        <g transform="translate(-302.146 -197.146)">
          <line id="Linie_4-11" data-name="Linie 4" x1="5" y2="5" transform="translate(307.5 197.5)" fill="none" stroke="#707070" stroke-width="1"/>
        </g>
        <g transform="translate(-297.146 -197.146)">
          <line id="Linie_4-12" data-name="Linie 4" x1="5" y2="5" transform="translate(307.5 197.5)" fill="none" stroke="#707070" stroke-width="1"/>
        </g>
        <g transform="translate(-292.146 -197.146)">
          <line id="Linie_4-13" data-name="Linie 4" x1="5" y2="5" transform="translate(307.5 197.5)" fill="none" stroke="#707070" stroke-width="1"/>
        </g>
        <g transform="translate(-287.146 -197.146)">
          <line id="Linie_4-14" data-name="Linie 4" x1="5" y2="5" transform="translate(307.5 197.5)" fill="none" stroke="#707070" stroke-width="1"/>
        </g>
        <g transform="translate(-282.146 -197.146)">
          <line id="Linie_4-15" data-name="Linie 4" x1="5" y2="5" transform="translate(307.5 197.5)" fill="none" stroke="#707070" stroke-width="1"/>
        </g>
        <g transform="translate(-277.146 -197.146)">
          <line id="Linie_4-16" data-name="Linie 4" x1="5" y2="5" transform="translate(307.5 197.5)" fill="none" stroke="#707070" stroke-width="1"/>
        </g>
        <g transform="translate(-272.146 -197.146)">
          <line id="Linie_4-17" data-name="Linie 4" x1="5" y2="5" transform="translate(307.5 197.5)" fill="none" stroke="#707070" stroke-width="1"/>
        </g>
        <g transform="translate(-267.146 -197.146)">
          <line id="Linie_4-18" data-name="Linie 4" x1="5" y2="5" transform="translate(307.5 197.5)" fill="none" stroke="#707070" stroke-width="1"/>
        </g>
      </g>
      <g id="Ellipse_2" data-name="Ellipse 2" transform="translate(534 266)" fill="#fff" stroke="#707070" stroke-width="3">
        <circle cx="4.5" cy="4.5" r="4.5" stroke="none"/>
        <circle cx="4.5" cy="4.5" r="3" fill="none"/>
      </g>
      <line id="Linie_9" data-name="Linie 9" x2="145" y2="169" transform="translate(437.5 151.5)" fill="none" stroke="red" stroke-width="1"/>
      <text id="WL" transform="translate(504 205)" fill="red" font-size="10" font-family="SegoeUI, Segoe UI"><tspan x="0" y="0">WL</tspan></text>
      <line id="Linie_10" data-name="Linie 10" y2="30" transform="translate(396.5 136.5)" fill="none" stroke="#05bf18" stroke-width="1"/>
      <line id="Linie_11" data-name="Linie 11" x1="3" y1="6" transform="translate(393.5 160.5)" fill="none" stroke="#05bf18" stroke-width="1"/>
      <line id="Linie_12" data-name="Linie 12" y1="6" x2="3" transform="translate(396.5 160.5)" fill="none" stroke="#05bf18" stroke-width="1"/>
      <text id="F" transform="translate(389 138)" fill="#05bf18" font-size="10" font-family="SegoeUI, Segoe UI"><tspan x="0" y="0">F</tspan></text>
    </g>
    <path id="Pfad_1" data-name="Pfad 1" d="M623.669,149.113C717.16,250.3,803.551,230.769,803.551,230.769" transform="translate(-31 13)" fill="none" stroke="#707070" stroke-width="3"/>
    <line id="Linie_13" data-name="Linie 13" x2="259" y2="116" transform="translate(549.5 143.5)" fill="none" stroke="red" stroke-width="1"/>
    <text id="WL-2" data-name="WL" transform="translate(569 141)" fill="red" font-size="10" font-family="SegoeUI, Segoe UI"><tspan x="0" y="0">WL</tspan></text>
  </g>
</svg>
