<svg xmlns="http://www.w3.org/2000/svg" width="256" height="114" viewBox="0 0 256 114">
  <g id="Gruppe_1" data-name="Gruppe 1" transform="translate(-234 -243)">
    <line id="Linie_1" data-name="Linie 1" x2="160" transform="translate(265.5 309.5)" fill="none" stroke="#707070" stroke-width="1"/>
    <text id="A" transform="translate(246 304)" fill="#707070" font-size="20" font-family="SegoeUI, Segoe UI"><tspan x="0" y="0">A</tspan></text>
    <text id="B" transform="translate(422 295)" fill="#707070" font-size="20" font-family="SegoeUI, Segoe UI"><tspan x="0" y="0">B</tspan></text>
    <line id="Linie_10" data-name="Linie 10" y1="47" transform="translate(310.5 262.5)" fill="none" stroke="red" stroke-width="1"/>
    <line id="Linie_11" data-name="Linie 11" x1="4" y1="7" transform="translate(306.5 301.5)" fill="none" stroke="red" stroke-width="1"/>
    <line id="Linie_12" data-name="Linie 12" y1="7" x2="4" transform="translate(310.5 301.5)" fill="none" stroke="red" stroke-width="1"/>
    <text id="F" transform="translate(287 265)" fill="red" font-size="20" font-family="SegoeUI, Segoe UI"><tspan x="0" y="0">F</tspan></text>
    <line id="Linie_13" data-name="Linie 13" y2="25" transform="translate(310.5 309.5)" fill="none" stroke="#707070" stroke-width="0.5"/>
    <line id="Linie_14" data-name="Linie 14" x2="115" transform="translate(310.5 332.5)" fill="none" stroke="#707070" stroke-width="0.5"/>
    <line id="Linie_15" data-name="Linie 15" y2="42" transform="translate(425.5 309.5)" fill="none" stroke="#707070" stroke-width="0.5"/>
    <text id="a-2" data-name="a" transform="translate(365 329)" fill="#707070" font-size="10" font-family="SegoeUI, Segoe UI"><tspan x="0" y="0">a</tspan></text>
    <line id="Linie_16" data-name="Linie 16" y2="40.889" transform="translate(265.5 310.5)" fill="none" stroke="#707070" stroke-width="0.5"/>
    <line id="Linie_17" data-name="Linie 17" x2="160" transform="translate(265.5 349.389)" fill="none" stroke="#707070" stroke-width="0.5"/>
    <text id="l" transform="translate(349 346)" fill="#707070" font-size="10" font-family="SegoeUI, Segoe UI"><tspan x="0" y="0">l</tspan></text>
    <line id="Linie_18" data-name="Linie 18" y2="47" transform="translate(265.5 310)" fill="none" stroke="#1bd0d6" stroke-width="1"/>
    <line id="Linie_19" data-name="Linie 19" x1="4" y2="7" transform="translate(261.5 311)" fill="none" stroke="#1bd0d6" stroke-width="1"/>
    <line id="Linie_20" data-name="Linie 20" x2="4" y2="7" transform="translate(265.5 311)" fill="none" stroke="#1bd0d6" stroke-width="1"/>
    <text id="FAy" transform="translate(234 344.5)" fill="#1bd0d6" font-size="20" font-family="SegoeUI, Segoe UI"><tspan x="0" y="0">F</tspan><tspan y="0" font-size="10">Ay</tspan></text>
    <line id="Linie_21" data-name="Linie 21" y2="47" transform="translate(425.5 309)" fill="none" stroke="#1bd0d6" stroke-width="1"/>
    <line id="Linie_22" data-name="Linie 22" x1="4" y2="7" transform="translate(421.5 310)" fill="none" stroke="#1bd0d6" stroke-width="1"/>
    <line id="Linie_23" data-name="Linie 23" x2="4" y2="7" transform="translate(425.5 310)" fill="none" stroke="#1bd0d6" stroke-width="1"/>
    <text id="FBy" transform="translate(436 350.5)" fill="#1bd0d6" font-size="20" font-family="SegoeUI, Segoe UI"><tspan x="0" y="0">F</tspan><tspan y="0" font-size="10">By</tspan></text>
    <line id="Linie_24" data-name="Linie 24" y2="47" transform="translate(473 309.5) rotate(90)" fill="none" stroke="#1bd0d6" stroke-width="1"/>
    <line id="Linie_25" data-name="Linie 25" x1="4" y2="7" transform="translate(472 305.5) rotate(90)" fill="none" stroke="#1bd0d6" stroke-width="1"/>
    <line id="Linie_26" data-name="Linie 26" x2="4" y2="7" transform="translate(472 309.5) rotate(90)" fill="none" stroke="#1bd0d6" stroke-width="1"/>
    <text id="FBx" transform="translate(469 296.5)" fill="#1bd0d6" font-size="20" font-family="SegoeUI, Segoe UI"><tspan x="0" y="0">F</tspan><tspan y="0" font-size="10">Bx</tspan></text>
  </g>
</svg>
