<svg xmlns="http://www.w3.org/2000/svg" xmlns:xlink="http://www.w3.org/1999/xlink" width="1194.421" height="269.166" viewBox="0 0 1194.421 269.166">
  <defs>
    <clipPath id="clip-path">
      <rect width="139" height="31" fill="none"/>
    </clipPath>
    <clipPath id="clip-path-2">
      <rect width="182.088" height="15.043" fill="none"/>
    </clipPath>
    <clipPath id="clip-path-3">
      <rect width="221.654" height="24.772" fill="none"/>
    </clipPath>
  </defs>
  <g id="Gruppe_1" data-name="Gruppe 1" transform="translate(-290.5 -170.334)">
    <line id="Linie_1" data-name="Linie 1" y2="98" transform="translate(318.5 189.5)" fill="none" stroke="#707070" stroke-width="3"/>
    <line id="Linie_2" data-name="Linie 2" x2="153" transform="translate(318.5 287.5)" fill="none" stroke="#707070" stroke-width="3"/>
    <line id="Linie_3" data-name="Linie 3" y1="98" transform="translate(471.5 189.5)" fill="none" stroke="#707070" stroke-width="3"/>
    <line id="Linie_4" data-name="Linie 4" y1="98" transform="translate(318.5 317.5)" fill="none" stroke="#707070" stroke-width="3"/>
    <line id="Linie_5" data-name="Linie 5" x2="153" transform="translate(318.5 317.5)" fill="none" stroke="#707070" stroke-width="3"/>
    <line id="Linie_6" data-name="Linie 6" y2="98" transform="translate(471.5 317.5)" fill="none" stroke="#707070" stroke-width="3"/>
    <g id="Wiederholungsraster_1" data-name="Wiederholungsraster 1" transform="translate(328 287)" clip-path="url(#clip-path)">
      <g transform="translate(-326 -287)">
        <g id="Ellipse_1" data-name="Ellipse 1" transform="translate(326 287)" fill="#fff" stroke="#707070" stroke-width="2">
          <circle cx="15.5" cy="15.5" r="15.5" stroke="none"/>
          <circle cx="15.5" cy="15.5" r="14.5" fill="none"/>
        </g>
      </g>
      <g transform="translate(-275 -287)">
        <g id="Ellipse_1-2" data-name="Ellipse 1" transform="translate(326 287)" fill="#fff" stroke="#707070" stroke-width="2">
          <circle cx="15.5" cy="15.5" r="15.5" stroke="none"/>
          <circle cx="15.5" cy="15.5" r="14.5" fill="none"/>
        </g>
      </g>
      <g transform="translate(-224 -287)">
        <g id="Ellipse_1-3" data-name="Ellipse 1" transform="translate(326 287)" fill="#fff" stroke="#707070" stroke-width="2">
          <circle cx="15.5" cy="15.5" r="15.5" stroke="none"/>
          <circle cx="15.5" cy="15.5" r="14.5" fill="none"/>
        </g>
      </g>
    </g>
    <line id="Linie_7" data-name="Linie 7" x2="221" transform="translate(290.5 287.5)" fill="none" stroke="blue" stroke-width="2"/>
    <line id="Linie_8" data-name="Linie 8" y2="268" transform="translate(395.5 171.5)" fill="none" stroke="red" stroke-width="2"/>
    <text id="WL" transform="translate(406 204)" fill="red" font-size="20" font-family="SegoeUI, Segoe UI"><tspan x="0" y="0">WL</tspan></text>
    <text id="BE" transform="translate(490 309)" fill="blue" font-size="20" font-family="SegoeUI, Segoe UI"><tspan x="0" y="0">BE</tspan></text>
    <line id="Linie_9" data-name="Linie 9" y2="69" transform="translate(577.5 189.5)" fill="none" stroke="#707070" stroke-width="3"/>
    <line id="Linie_11" data-name="Linie 11" y1="69" transform="translate(730.5 189.5)" fill="none" stroke="#707070" stroke-width="3"/>
    <line id="Linie_12" data-name="Linie 12" y1="69" transform="translate(578.5 317.5)" fill="none" stroke="#707070" stroke-width="3"/>
    <line id="Linie_14" data-name="Linie 14" y2="71" transform="translate(730.5 317.5)" fill="none" stroke="#707070" stroke-width="3"/>
    <line id="Linie_15" data-name="Linie 15" x2="221" transform="translate(549.5 287.5)" fill="none" stroke="blue" stroke-width="2"/>
    <line id="Linie_16" data-name="Linie 16" y2="268" transform="translate(654.5 171.5)" fill="none" stroke="red" stroke-width="2"/>
    <text id="WL-2" data-name="WL" transform="translate(665 204)" fill="red" font-size="20" font-family="SegoeUI, Segoe UI"><tspan x="0" y="0">WL</tspan></text>
    <text id="BE-2" data-name="BE" transform="translate(749 309)" fill="blue" font-size="20" font-family="SegoeUI, Segoe UI"><tspan x="0" y="0">BE</tspan></text>
    <path id="Pfad_1" data-name="Pfad 1" d="M558.5,258.5s38,28.255,76.457,28.255S712.335,258.5,712.335,258.5" transform="translate(19)" fill="none" stroke="#707070" stroke-width="3"/>
    <path id="Pfad_2" data-name="Pfad 2" d="M558.5,286.755s38-28.255,76.457-28.255,77.378,28.255,77.378,28.255" transform="translate(19 31)" fill="none" stroke="#707070" stroke-width="3"/>
    <line id="Linie_17" data-name="Linie 17" x1="182.464" transform="translate(916.204 288.37)" fill="none" stroke="#707070" stroke-width="3"/>
    <line id="Linie_18" data-name="Linie 18" x1="1.285" y2="123.356" transform="translate(914.919 288.37)" fill="none" stroke="#707070" stroke-width="3"/>
    <line id="Linie_19" data-name="Linie 19" y1="163.19" x2="163.19" transform="translate(799.861 261.44) rotate(-22)" fill="none" stroke="#707070" stroke-width="3"/>
    <line id="Linie_20" data-name="Linie 20" x1="30.839" y1="30.839" transform="translate(911.022 183.267) rotate(-22)" fill="none" stroke="#707070" stroke-width="3"/>
    <line id="Linie_21" data-name="Linie 21" x1="163.19" y2="163.19" transform="translate(759.715 244.399) rotate(-22)" fill="none" stroke="#707070" stroke-width="3"/>
    <line id="Linie_22" data-name="Linie 22" x1="30.839" y1="30.839" transform="translate(820.847 395.706) rotate(-22)" fill="none" stroke="#707070" stroke-width="3"/>
    <g id="Wiederholungsraster_2" data-name="Wiederholungsraster 2" transform="translate(917.034 287.916)" clip-path="url(#clip-path-2)">
      <g transform="translate(-1050.146 -242.146)">
        <line id="Linie_23" data-name="Linie 23" x1="11" y2="11" transform="translate(1050.5 242.5)" fill="none" stroke="#707070" stroke-width="1"/>
      </g>
      <g transform="translate(-1042.146 -242.146)">
        <line id="Linie_23-2" data-name="Linie 23" x1="11" y2="11" transform="translate(1050.5 242.5)" fill="none" stroke="#707070" stroke-width="1"/>
      </g>
      <g transform="translate(-1034.146 -242.146)">
        <line id="Linie_23-3" data-name="Linie 23" x1="11" y2="11" transform="translate(1050.5 242.5)" fill="none" stroke="#707070" stroke-width="1"/>
      </g>
      <g transform="translate(-1026.146 -242.146)">
        <line id="Linie_23-4" data-name="Linie 23" x1="11" y2="11" transform="translate(1050.5 242.5)" fill="none" stroke="#707070" stroke-width="1"/>
      </g>
      <g transform="translate(-1018.146 -242.146)">
        <line id="Linie_23-5" data-name="Linie 23" x1="11" y2="11" transform="translate(1050.5 242.5)" fill="none" stroke="#707070" stroke-width="1"/>
      </g>
      <g transform="translate(-1010.146 -242.146)">
        <line id="Linie_23-6" data-name="Linie 23" x1="11" y2="11" transform="translate(1050.5 242.5)" fill="none" stroke="#707070" stroke-width="1"/>
      </g>
      <g transform="translate(-1002.146 -242.146)">
        <line id="Linie_23-7" data-name="Linie 23" x1="11" y2="11" transform="translate(1050.5 242.5)" fill="none" stroke="#707070" stroke-width="1"/>
      </g>
      <g transform="translate(-994.146 -242.146)">
        <line id="Linie_23-8" data-name="Linie 23" x1="11" y2="11" transform="translate(1050.5 242.5)" fill="none" stroke="#707070" stroke-width="1"/>
      </g>
      <g transform="translate(-986.146 -242.146)">
        <line id="Linie_23-9" data-name="Linie 23" x1="11" y2="11" transform="translate(1050.5 242.5)" fill="none" stroke="#707070" stroke-width="1"/>
      </g>
      <g transform="translate(-978.146 -242.146)">
        <line id="Linie_23-10" data-name="Linie 23" x1="11" y2="11" transform="translate(1050.5 242.5)" fill="none" stroke="#707070" stroke-width="1"/>
      </g>
      <g transform="translate(-970.146 -242.146)">
        <line id="Linie_23-11" data-name="Linie 23" x1="11" y2="11" transform="translate(1050.5 242.5)" fill="none" stroke="#707070" stroke-width="1"/>
      </g>
      <g transform="translate(-962.146 -242.146)">
        <line id="Linie_23-12" data-name="Linie 23" x1="11" y2="11" transform="translate(1050.5 242.5)" fill="none" stroke="#707070" stroke-width="1"/>
      </g>
      <g transform="translate(-954.146 -242.146)">
        <line id="Linie_23-13" data-name="Linie 23" x1="11" y2="11" transform="translate(1050.5 242.5)" fill="none" stroke="#707070" stroke-width="1"/>
      </g>
      <g transform="translate(-946.146 -242.146)">
        <line id="Linie_23-14" data-name="Linie 23" x1="11" y2="11" transform="translate(1050.5 242.5)" fill="none" stroke="#707070" stroke-width="1"/>
      </g>
      <g transform="translate(-938.146 -242.146)">
        <line id="Linie_23-15" data-name="Linie 23" x1="11" y2="11" transform="translate(1050.5 242.5)" fill="none" stroke="#707070" stroke-width="1"/>
      </g>
      <g transform="translate(-930.146 -242.146)">
        <line id="Linie_23-16" data-name="Linie 23" x1="11" y2="11" transform="translate(1050.5 242.5)" fill="none" stroke="#707070" stroke-width="1"/>
      </g>
      <g transform="translate(-922.146 -242.146)">
        <line id="Linie_23-17" data-name="Linie 23" x1="11" y2="11" transform="translate(1050.5 242.5)" fill="none" stroke="#707070" stroke-width="1"/>
      </g>
      <g transform="translate(-914.146 -242.146)">
        <line id="Linie_23-18" data-name="Linie 23" x1="11" y2="11" transform="translate(1050.5 242.5)" fill="none" stroke="#707070" stroke-width="1"/>
      </g>
      <g transform="translate(-906.146 -242.146)">
        <line id="Linie_23-19" data-name="Linie 23" x1="11" y2="11" transform="translate(1050.5 242.5)" fill="none" stroke="#707070" stroke-width="1"/>
      </g>
      <g transform="translate(-898.146 -242.146)">
        <line id="Linie_23-20" data-name="Linie 23" x1="11" y2="11" transform="translate(1050.5 242.5)" fill="none" stroke="#707070" stroke-width="1"/>
      </g>
      <g transform="translate(-890.146 -242.146)">
        <line id="Linie_23-21" data-name="Linie 23" x1="11" y2="11" transform="translate(1050.5 242.5)" fill="none" stroke="#707070" stroke-width="1"/>
      </g>
      <g transform="translate(-882.146 -242.146)">
        <line id="Linie_23-22" data-name="Linie 23" x1="11" y2="11" transform="translate(1050.5 242.5)" fill="none" stroke="#707070" stroke-width="1"/>
      </g>
      <g transform="translate(-874.146 -242.146)">
        <line id="Linie_23-23" data-name="Linie 23" x1="11" y2="11" transform="translate(1050.5 242.5)" fill="none" stroke="#707070" stroke-width="1"/>
      </g>
    </g>
    <line id="Linie_23-24" data-name="Linie 23" x1="14.135" y1="14.135" transform="translate(931.623 298.65) rotate(90)" fill="none" stroke="#707070" stroke-width="1"/>
    <line id="Linie_23-25" data-name="Linie 23" x1="14.135" y1="14.135" transform="translate(931.623 308.929) rotate(90)" fill="none" stroke="#707070" stroke-width="1"/>
    <line id="Linie_23-26" data-name="Linie 23" x1="14.135" y1="14.135" transform="translate(931.623 319.209) rotate(90)" fill="none" stroke="#707070" stroke-width="1"/>
    <line id="Linie_23-27" data-name="Linie 23" x1="14.135" y1="14.135" transform="translate(931.623 329.489) rotate(90)" fill="none" stroke="#707070" stroke-width="1"/>
    <line id="Linie_23-28" data-name="Linie 23" x1="14.135" y1="14.135" transform="translate(931.623 339.768) rotate(90)" fill="none" stroke="#707070" stroke-width="1"/>
    <line id="Linie_23-29" data-name="Linie 23" x1="14.135" y1="14.135" transform="translate(931.623 350.048) rotate(90)" fill="none" stroke="#707070" stroke-width="1"/>
    <line id="Linie_23-30" data-name="Linie 23" x1="14.135" y1="14.135" transform="translate(931.623 360.328) rotate(90)" fill="none" stroke="#707070" stroke-width="1"/>
    <line id="Linie_23-31" data-name="Linie 23" x1="14.135" y1="14.135" transform="translate(931.623 370.607) rotate(90)" fill="none" stroke="#707070" stroke-width="1"/>
    <line id="Linie_23-32" data-name="Linie 23" x1="14.135" y1="14.135" transform="translate(931.623 380.887) rotate(90)" fill="none" stroke="#707070" stroke-width="1"/>
    <line id="Linie_23-33" data-name="Linie 23" x1="14.135" y1="14.135" transform="translate(931.623 391.167) rotate(90)" fill="none" stroke="#707070" stroke-width="1"/>
    <line id="Linie_24" data-name="Linie 24" x2="271.126" y2="110.506" transform="translate(831.396 253.676)" fill="none" stroke="red" stroke-width="2"/>
    <text id="WL-3" data-name="WL" transform="translate(1008.078 371.266)" fill="red" font-size="25" font-family="SegoeUI, Segoe UI"><tspan x="0" y="0">WL</tspan></text>
    <line id="Linie_25" data-name="Linie 25" x1="109" y2="258" transform="translate(854.5 171.5)" fill="none" stroke="blue" stroke-width="2"/>
    <text id="BE-3" data-name="BE" transform="translate(957 254)" fill="blue" font-size="20" font-family="SegoeUI, Segoe UI"><tspan x="0" y="0">BE</tspan></text>
    <line id="Linie_17-2" data-name="Linie 17" x1="222.274" transform="translate(1261.898 206.594)" fill="none" stroke="#707070" stroke-width="3"/>
    <line id="Linie_18-2" data-name="Linie 18" x1="2.116" y2="203.132" transform="translate(1259.782 206.594)" fill="none" stroke="#707070" stroke-width="3"/>
    <g id="Wiederholungsraster_2-2" data-name="Wiederholungsraster 2" transform="translate(1263.266 205.846)" clip-path="url(#clip-path-3)">
      <g transform="translate(-1050.146 -242.146)">
        <line id="Linie_23-34" data-name="Linie 23" x1="11" y2="11" transform="translate(1050.5 242.5)" fill="none" stroke="#707070" stroke-width="1"/>
      </g>
      <g transform="translate(-1042.146 -242.146)">
        <line id="Linie_23-35" data-name="Linie 23" x1="11" y2="11" transform="translate(1050.5 242.5)" fill="none" stroke="#707070" stroke-width="1"/>
      </g>
      <g transform="translate(-1034.146 -242.146)">
        <line id="Linie_23-36" data-name="Linie 23" x1="11" y2="11" transform="translate(1050.5 242.5)" fill="none" stroke="#707070" stroke-width="1"/>
      </g>
      <g transform="translate(-1026.146 -242.146)">
        <line id="Linie_23-37" data-name="Linie 23" x1="11" y2="11" transform="translate(1050.5 242.5)" fill="none" stroke="#707070" stroke-width="1"/>
      </g>
      <g transform="translate(-1018.146 -242.146)">
        <line id="Linie_23-38" data-name="Linie 23" x1="11" y2="11" transform="translate(1050.5 242.5)" fill="none" stroke="#707070" stroke-width="1"/>
      </g>
      <g transform="translate(-1010.146 -242.146)">
        <line id="Linie_23-39" data-name="Linie 23" x1="11" y2="11" transform="translate(1050.5 242.5)" fill="none" stroke="#707070" stroke-width="1"/>
      </g>
      <g transform="translate(-1002.146 -242.146)">
        <line id="Linie_23-40" data-name="Linie 23" x1="11" y2="11" transform="translate(1050.5 242.5)" fill="none" stroke="#707070" stroke-width="1"/>
      </g>
      <g transform="translate(-994.146 -242.146)">
        <line id="Linie_23-41" data-name="Linie 23" x1="11" y2="11" transform="translate(1050.5 242.5)" fill="none" stroke="#707070" stroke-width="1"/>
      </g>
      <g transform="translate(-986.146 -242.146)">
        <line id="Linie_23-42" data-name="Linie 23" x1="11" y2="11" transform="translate(1050.5 242.5)" fill="none" stroke="#707070" stroke-width="1"/>
      </g>
      <g transform="translate(-978.146 -242.146)">
        <line id="Linie_23-43" data-name="Linie 23" x1="11" y2="11" transform="translate(1050.5 242.5)" fill="none" stroke="#707070" stroke-width="1"/>
      </g>
      <g transform="translate(-970.146 -242.146)">
        <line id="Linie_23-44" data-name="Linie 23" x1="11" y2="11" transform="translate(1050.5 242.5)" fill="none" stroke="#707070" stroke-width="1"/>
      </g>
      <g transform="translate(-962.146 -242.146)">
        <line id="Linie_23-45" data-name="Linie 23" x1="11" y2="11" transform="translate(1050.5 242.5)" fill="none" stroke="#707070" stroke-width="1"/>
      </g>
      <g transform="translate(-954.146 -242.146)">
        <line id="Linie_23-46" data-name="Linie 23" x1="11" y2="11" transform="translate(1050.5 242.5)" fill="none" stroke="#707070" stroke-width="1"/>
      </g>
      <g transform="translate(-946.146 -242.146)">
        <line id="Linie_23-47" data-name="Linie 23" x1="11" y2="11" transform="translate(1050.5 242.5)" fill="none" stroke="#707070" stroke-width="1"/>
      </g>
      <g transform="translate(-938.146 -242.146)">
        <line id="Linie_23-48" data-name="Linie 23" x1="11" y2="11" transform="translate(1050.5 242.5)" fill="none" stroke="#707070" stroke-width="1"/>
      </g>
      <g transform="translate(-930.146 -242.146)">
        <line id="Linie_23-49" data-name="Linie 23" x1="11" y2="11" transform="translate(1050.5 242.5)" fill="none" stroke="#707070" stroke-width="1"/>
      </g>
      <g transform="translate(-922.146 -242.146)">
        <line id="Linie_23-50" data-name="Linie 23" x1="11" y2="11" transform="translate(1050.5 242.5)" fill="none" stroke="#707070" stroke-width="1"/>
      </g>
      <g transform="translate(-914.146 -242.146)">
        <line id="Linie_23-51" data-name="Linie 23" x1="11" y2="11" transform="translate(1050.5 242.5)" fill="none" stroke="#707070" stroke-width="1"/>
      </g>
      <g transform="translate(-906.146 -242.146)">
        <line id="Linie_23-52" data-name="Linie 23" x1="11" y2="11" transform="translate(1050.5 242.5)" fill="none" stroke="#707070" stroke-width="1"/>
      </g>
      <g transform="translate(-898.146 -242.146)">
        <line id="Linie_23-53" data-name="Linie 23" x1="11" y2="11" transform="translate(1050.5 242.5)" fill="none" stroke="#707070" stroke-width="1"/>
      </g>
      <g transform="translate(-890.146 -242.146)">
        <line id="Linie_23-54" data-name="Linie 23" x1="11" y2="11" transform="translate(1050.5 242.5)" fill="none" stroke="#707070" stroke-width="1"/>
      </g>
      <g transform="translate(-882.146 -242.146)">
        <line id="Linie_23-55" data-name="Linie 23" x1="11" y2="11" transform="translate(1050.5 242.5)" fill="none" stroke="#707070" stroke-width="1"/>
      </g>
      <g transform="translate(-874.146 -242.146)">
        <line id="Linie_23-56" data-name="Linie 23" x1="11" y2="11" transform="translate(1050.5 242.5)" fill="none" stroke="#707070" stroke-width="1"/>
      </g>
      <g transform="translate(-866.146 -242.146)">
        <line id="Linie_23-57" data-name="Linie 23" x1="11" y2="11" transform="translate(1050.5 242.5)" fill="none" stroke="#707070" stroke-width="1"/>
      </g>
      <g transform="translate(-858.146 -242.146)">
        <line id="Linie_23-58" data-name="Linie 23" x1="11" y2="11" transform="translate(1050.5 242.5)" fill="none" stroke="#707070" stroke-width="1"/>
      </g>
      <g transform="translate(-850.146 -242.146)">
        <line id="Linie_23-59" data-name="Linie 23" x1="11" y2="11" transform="translate(1050.5 242.5)" fill="none" stroke="#707070" stroke-width="1"/>
      </g>
      <g transform="translate(-842.146 -242.146)">
        <line id="Linie_23-60" data-name="Linie 23" x1="11" y2="11" transform="translate(1050.5 242.5)" fill="none" stroke="#707070" stroke-width="1"/>
      </g>
      <g transform="translate(-834.146 -242.146)">
        <line id="Linie_23-61" data-name="Linie 23" x1="11" y2="11" transform="translate(1050.5 242.5)" fill="none" stroke="#707070" stroke-width="1"/>
      </g>
    </g>
    <line id="Linie_23-62" data-name="Linie 23" x1="11" y1="11" transform="translate(1262.126 410.758) rotate(-90)" fill="none" stroke="#707070" stroke-width="1"/>
    <line id="Linie_23-63" data-name="Linie 23" x1="11" y1="11" transform="translate(1262.126 402.758) rotate(-90)" fill="none" stroke="#707070" stroke-width="1"/>
    <line id="Linie_23-64" data-name="Linie 23" x1="11" y1="11" transform="translate(1262.126 394.758) rotate(-90)" fill="none" stroke="#707070" stroke-width="1"/>
    <line id="Linie_23-65" data-name="Linie 23" x1="11" y1="11" transform="translate(1262.126 386.758) rotate(-90)" fill="none" stroke="#707070" stroke-width="1"/>
    <line id="Linie_23-66" data-name="Linie 23" x1="11" y1="11" transform="translate(1262.126 378.758) rotate(-90)" fill="none" stroke="#707070" stroke-width="1"/>
    <line id="Linie_23-67" data-name="Linie 23" x1="11" y1="11" transform="translate(1262.126 370.758) rotate(-90)" fill="none" stroke="#707070" stroke-width="1"/>
    <line id="Linie_23-68" data-name="Linie 23" x1="11" y1="11" transform="translate(1262.126 362.758) rotate(-90)" fill="none" stroke="#707070" stroke-width="1"/>
    <line id="Linie_23-69" data-name="Linie 23" x1="11" y1="11" transform="translate(1262.126 354.758) rotate(-90)" fill="none" stroke="#707070" stroke-width="1"/>
    <line id="Linie_23-70" data-name="Linie 23" x1="11" y1="11" transform="translate(1262.126 346.758) rotate(-90)" fill="none" stroke="#707070" stroke-width="1"/>
    <line id="Linie_23-71" data-name="Linie 23" x1="11" y1="11" transform="translate(1262.126 338.758) rotate(-90)" fill="none" stroke="#707070" stroke-width="1"/>
    <line id="Linie_23-72" data-name="Linie 23" x1="11" y1="11" transform="translate(1262.126 330.758) rotate(-90)" fill="none" stroke="#707070" stroke-width="1"/>
    <line id="Linie_23-73" data-name="Linie 23" x1="11" y1="11" transform="translate(1262.126 322.758) rotate(-90)" fill="none" stroke="#707070" stroke-width="1"/>
    <line id="Linie_23-74" data-name="Linie 23" x1="11" y1="11" transform="translate(1262.126 314.758) rotate(-90)" fill="none" stroke="#707070" stroke-width="1"/>
    <line id="Linie_23-75" data-name="Linie 23" x1="11" y1="11" transform="translate(1262.126 306.758) rotate(-90)" fill="none" stroke="#707070" stroke-width="1"/>
    <line id="Linie_23-76" data-name="Linie 23" x1="11" y1="11" transform="translate(1262.126 298.758) rotate(-90)" fill="none" stroke="#707070" stroke-width="1"/>
    <line id="Linie_23-77" data-name="Linie 23" x1="11" y1="11" transform="translate(1262.126 290.758) rotate(-90)" fill="none" stroke="#707070" stroke-width="1"/>
    <line id="Linie_23-78" data-name="Linie 23" x1="11" y1="11" transform="translate(1262.126 282.758) rotate(-90)" fill="none" stroke="#707070" stroke-width="1"/>
    <line id="Linie_23-79" data-name="Linie 23" x1="11" y1="11" transform="translate(1262.126 274.758) rotate(-90)" fill="none" stroke="#707070" stroke-width="1"/>
    <line id="Linie_23-80" data-name="Linie 23" x1="11" y1="11" transform="translate(1262.126 266.758) rotate(-90)" fill="none" stroke="#707070" stroke-width="1"/>
    <line id="Linie_23-81" data-name="Linie 23" x1="11" y1="11" transform="translate(1262.126 258.758) rotate(-90)" fill="none" stroke="#707070" stroke-width="1"/>
    <line id="Linie_23-82" data-name="Linie 23" x1="11" y1="11" transform="translate(1262.126 250.758) rotate(-90)" fill="none" stroke="#707070" stroke-width="1"/>
    <line id="Linie_23-83" data-name="Linie 23" x1="11" y1="11" transform="translate(1262.126 242.758) rotate(-90)" fill="none" stroke="#707070" stroke-width="1"/>
    <line id="Linie_23-84" data-name="Linie 23" x1="11" y1="11" transform="translate(1262.126 234.758) rotate(-90)" fill="none" stroke="#707070" stroke-width="1"/>
    <line id="Linie_23-85" data-name="Linie 23" x1="11" y1="11" transform="translate(1262.126 226.758) rotate(-90)" fill="none" stroke="#707070" stroke-width="1"/>
    <line id="Linie_26" data-name="Linie 26" x1="22.441" y1="22.441" transform="translate(1228.818 244.321) rotate(-22)" fill="none" stroke="#707070" stroke-width="3"/>
    <line id="Linie_27" data-name="Linie 27" x1="118.75" y2="118.75" transform="translate(1118.715 288.806) rotate(-22)" fill="none" stroke="#707070" stroke-width="3"/>
    <line id="Linie_28" data-name="Linie 28" x1="22.441" y1="22.441" transform="translate(1163.199 398.909) rotate(-22)" fill="none" stroke="#707070" stroke-width="3"/>
    <line id="Linie_29" data-name="Linie 29" x2="195.624" transform="translate(1172.876 256.556)" fill="none" stroke="red" stroke-width="2"/>
    <text id="WL-4" data-name="WL" transform="translate(1346.444 280.477)" fill="red" font-size="18" font-family="SegoeUI, Segoe UI"><tspan x="0" y="0">WL</tspan></text>
    <line id="Linie_30" data-name="Linie 30" x1="3" y2="245" transform="translate(1259.5 178.5)" fill="none" stroke="blue" stroke-width="2"/>
    <text id="BE-4" data-name="BE" transform="translate(1273.276 195.783)" fill="blue" font-size="14" font-family="SegoeUI, Segoe UI"><tspan x="0" y="0">BE</tspan></text>
    <line id="Linie_31" data-name="Linie 31" x1="66" y2="155" transform="translate(1192.5 255.5)" fill="none" stroke="#707070" stroke-width="3"/>
  </g>
</svg>
