<svg xmlns="http://www.w3.org/2000/svg" width="268.45" height="277.405" viewBox="0 0 268.45 277.405">
  <g id="Gruppe_1" data-name="Gruppe 1" transform="translate(-198.062 -104.595)">
    <path id="Pfad_1" data-name="Pfad 1" d="M466,275c-18-143-44-129-44-129s-17-61-42-34-69,6-69,6-42-36-40,15-106,8-62,71,28,81,88,103,83,38,120,18S466,275,466,275Z" fill="none" stroke="#707070" stroke-width="1"/>
    <g id="Ellipse_1" data-name="Ellipse 1" transform="translate(272 195)" fill="#fff" stroke="#707070" stroke-width="3">
      <circle cx="2.5" cy="2.5" r="2.5" stroke="none"/>
      <circle cx="2.5" cy="2.5" r="1" fill="none"/>
    </g>
    <text id="D" transform="translate(265 176)" fill="#707070" font-size="20" font-family="SegoeUI, Segoe UI"><tspan x="0" y="0">D</tspan></text>
    <line id="Linie_1" data-name="Linie 1" x2="110" y2="48" transform="translate(274.5 197.5)" fill="none" stroke="#24e31e" stroke-width="1"/>
    <line id="Linie_2" data-name="Linie 2" x1="109" y2="260" transform="translate(331.5 113.5)" fill="none" stroke="red" stroke-width="1"/>
    <text id="WL" transform="translate(352 377)" fill="red" font-size="20" font-family="SegoeUI, Segoe UI"><tspan x="0" y="0">WL</tspan></text>
    <path id="Pfad_2" data-name="Pfad 2" d="M366,236.686c-2.687,24.26,11.514,26.627,11.514,26.627" fill="none" stroke="#24e31e" stroke-width="1"/>
    <g id="Ellipse_2" data-name="Ellipse 2" transform="translate(375 248)" fill="#24e31e" stroke="#24e31e" stroke-width="3">
      <circle cx="1.5" cy="1.5" r="1.5" stroke="none"/>
      <circle cx="1.5" cy="1.5" fill="none"/>
    </g>
    <line id="Linie_3" data-name="Linie 3" y1="85" x2="37" transform="translate(384.5 160.5)" fill="none" stroke="#242fd1" stroke-width="3"/>
    <line id="Linie_4" data-name="Linie 4" x1="1" y1="13" transform="translate(383.5 231.5)" fill="none" stroke="#242fd1" stroke-width="3"/>
    <line id="Linie_5" data-name="Linie 5" y1="10" x2="10" transform="translate(385.5 235.5)" fill="none" stroke="#242fd1" stroke-width="3"/>
    <text id="F" transform="translate(419 211)" fill="#242fd1" font-size="20" font-family="SegoeUI, Segoe UI"><tspan x="0" y="0">F</tspan></text>
    <text id="l" transform="translate(300 236)" fill="#4ee849" font-size="20" font-family="SegoeUI, Segoe UI"><tspan x="0" y="0">l</tspan></text>
  </g>
</svg>
