<svg xmlns="http://www.w3.org/2000/svg" xmlns:xlink="http://www.w3.org/1999/xlink" width="270.5" height="168.5" viewBox="0 0 270.5 168.5">
  <defs>
    <clipPath id="clip-path">
      <rect width="6.707" height="118.707" fill="none"/>
    </clipPath>
  </defs>
  <g id="Gruppe_1" data-name="Gruppe 1" transform="translate(-281.5 -90)">
    <line id="Linie_3" data-name="Linie 3" y2="112" transform="translate(348.5 122.5)" fill="none" stroke="#707070" stroke-width="2"/>
    <g id="Wiederholungsraster_2" data-name="Wiederholungsraster 2" transform="translate(342.146 122.146)" clip-path="url(#clip-path)">
      <g transform="translate(-133.146 -122.146)">
        <line id="Linie_2" data-name="Linie 2" x1="6" y2="6" transform="translate(133.5 122.5)" fill="none" stroke="#707070" stroke-width="1"/>
      </g>
      <g transform="translate(-133.146 -115.146)">
        <line id="Linie_2-2" data-name="Linie 2" x1="6" y2="6" transform="translate(133.5 122.5)" fill="none" stroke="#707070" stroke-width="1"/>
      </g>
      <g transform="translate(-133.146 -108.146)">
        <line id="Linie_2-3" data-name="Linie 2" x1="6" y2="6" transform="translate(133.5 122.5)" fill="none" stroke="#707070" stroke-width="1"/>
      </g>
      <g transform="translate(-133.146 -101.146)">
        <line id="Linie_2-4" data-name="Linie 2" x1="6" y2="6" transform="translate(133.5 122.5)" fill="none" stroke="#707070" stroke-width="1"/>
      </g>
      <g transform="translate(-133.146 -94.146)">
        <line id="Linie_2-5" data-name="Linie 2" x1="6" y2="6" transform="translate(133.5 122.5)" fill="none" stroke="#707070" stroke-width="1"/>
      </g>
      <g transform="translate(-133.146 -87.146)">
        <line id="Linie_2-6" data-name="Linie 2" x1="6" y2="6" transform="translate(133.5 122.5)" fill="none" stroke="#707070" stroke-width="1"/>
      </g>
      <g transform="translate(-133.146 -80.146)">
        <line id="Linie_2-7" data-name="Linie 2" x1="6" y2="6" transform="translate(133.5 122.5)" fill="none" stroke="#707070" stroke-width="1"/>
      </g>
      <g transform="translate(-133.146 -73.146)">
        <line id="Linie_2-8" data-name="Linie 2" x1="6" y2="6" transform="translate(133.5 122.5)" fill="none" stroke="#707070" stroke-width="1"/>
      </g>
      <g transform="translate(-133.146 -66.146)">
        <line id="Linie_2-9" data-name="Linie 2" x1="6" y2="6" transform="translate(133.5 122.5)" fill="none" stroke="#707070" stroke-width="1"/>
      </g>
      <g transform="translate(-133.146 -59.146)">
        <line id="Linie_2-10" data-name="Linie 2" x1="6" y2="6" transform="translate(133.5 122.5)" fill="none" stroke="#707070" stroke-width="1"/>
      </g>
      <g transform="translate(-133.146 -52.146)">
        <line id="Linie_2-11" data-name="Linie 2" x1="6" y2="6" transform="translate(133.5 122.5)" fill="none" stroke="#707070" stroke-width="1"/>
      </g>
      <g transform="translate(-133.146 -45.146)">
        <line id="Linie_2-12" data-name="Linie 2" x1="6" y2="6" transform="translate(133.5 122.5)" fill="none" stroke="#707070" stroke-width="1"/>
      </g>
      <g transform="translate(-133.146 -38.146)">
        <line id="Linie_2-13" data-name="Linie 2" x1="6" y2="6" transform="translate(133.5 122.5)" fill="none" stroke="#707070" stroke-width="1"/>
      </g>
      <g transform="translate(-133.146 -31.146)">
        <line id="Linie_2-14" data-name="Linie 2" x1="6" y2="6" transform="translate(133.5 122.5)" fill="none" stroke="#707070" stroke-width="1"/>
      </g>
      <g transform="translate(-133.146 -24.146)">
        <line id="Linie_2-15" data-name="Linie 2" x1="6" y2="6" transform="translate(133.5 122.5)" fill="none" stroke="#707070" stroke-width="1"/>
      </g>
      <g transform="translate(-133.146 -17.146)">
        <line id="Linie_2-16" data-name="Linie 2" x1="6" y2="6" transform="translate(133.5 122.5)" fill="none" stroke="#707070" stroke-width="1"/>
      </g>
      <g transform="translate(-133.146 -10.146)">
        <line id="Linie_2-17" data-name="Linie 2" x1="6" y2="6" transform="translate(133.5 122.5)" fill="none" stroke="#707070" stroke-width="1"/>
      </g>
    </g>
    <line id="Linie_4" data-name="Linie 4" x2="163" transform="translate(321.5 176.5)" fill="none" stroke="#707070" stroke-width="3"/>
    <g id="Ellipse_1" data-name="Ellipse 1" transform="translate(343 171)" fill="#fff" stroke="#707070" stroke-width="8">
      <circle cx="5.5" cy="5.5" r="5.5" stroke="none"/>
      <circle cx="5.5" cy="5.5" r="1.5" fill="none"/>
    </g>
    <text id="A" transform="translate(354 169)" fill="#707070" font-size="20" font-family="SegoeUI, Segoe UI"><tspan x="0" y="0">A</tspan></text>
    <line id="Linie_5" data-name="Linie 5" y1="71" transform="translate(484.5 105.5)" fill="none" stroke="#1bbb25" stroke-width="1"/>
    <line id="Linie_6" data-name="Linie 6" x2="65" transform="translate(484.5 176.5)" fill="none" stroke="#1bbb25" stroke-width="1"/>
    <line id="Linie_7" data-name="Linie 7" x1="4" y1="6" transform="translate(480.5 169.5)" fill="none" stroke="#1bbb25" stroke-width="1"/>
    <line id="Linie_8" data-name="Linie 8" y1="6" x2="4" transform="translate(484.5 169.5)" fill="none" stroke="#1bbb25" stroke-width="1"/>
    <line id="Linie_9" data-name="Linie 9" y1="3" x2="7" transform="translate(484.5 173.5)" fill="none" stroke="#1bbb25" stroke-width="1"/>
    <line id="Linie_10" data-name="Linie 10" x2="7" y2="3" transform="translate(484.5 176.5)" fill="none" stroke="#1bbb25" stroke-width="1"/>
    <text id="F1" transform="translate(492 117)" fill="#1cbb26" font-size="20" font-family="SegoeUI, Segoe UI"><tspan x="0" y="0">F</tspan><tspan y="0" font-size="10">1</tspan></text>
    <text id="F2" transform="translate(536 168)" fill="#1cbb26" font-size="20" font-family="SegoeUI, Segoe UI"><tspan x="0" y="0">F</tspan><tspan y="0" font-size="10">2</tspan></text>
    <line id="Linie_11" data-name="Linie 11" y2="71" transform="translate(348 177)" fill="none" stroke="blue" stroke-width="1"/>
    <line id="Linie_12" data-name="Linie 12" x1="65" transform="translate(283 177)" fill="none" stroke="blue" stroke-width="1"/>
    <line id="Linie_13" data-name="Linie 13" x2="4" y2="6" transform="translate(348 178)" fill="none" stroke="blue" stroke-width="1"/>
    <line id="Linie_14" data-name="Linie 14" x1="4" y2="6" transform="translate(344 178)" fill="none" stroke="blue" stroke-width="1"/>
    <line id="Linie_15" data-name="Linie 15" x1="7" y2="3" transform="translate(341 177)" fill="none" stroke="blue" stroke-width="1"/>
    <line id="Linie_16" data-name="Linie 16" x1="7" y1="3" transform="translate(341 174)" fill="none" stroke="blue" stroke-width="1"/>
    <text id="FAX" transform="translate(281.5 202.5)" fill="blue" font-size="20" font-family="SegoeUI, Segoe UI"><tspan x="0" y="0">F</tspan><tspan y="0" font-size="10">AX</tspan></text>
    <text id="FAY" transform="translate(325.5 253.5)" fill="blue" font-size="20" font-family="SegoeUI, Segoe UI"><tspan x="0" y="0">F</tspan><tspan y="0" font-size="10">AY</tspan></text>
    <path id="Pfad_1" data-name="Pfad 1" d="M393.264,146c-62.813-44.5-91.033,0-91.033,0" transform="translate(4 -14)" fill="none" stroke="red" stroke-width="1"/>
    <line id="Linie_17" data-name="Linie 17" y1="3" x2="6" transform="translate(306.5 129.5)" fill="none" stroke="red" stroke-width="1"/>
    <line id="Linie_18" data-name="Linie 18" y1="6" transform="translate(306.5 126.5)" fill="none" stroke="red" stroke-width="1"/>
    <text id="MA" transform="translate(382 112)" fill="red" font-size="20" font-family="SegoeUI, Segoe UI"><tspan x="0" y="0">M</tspan><tspan y="0" font-size="10">A</tspan></text>
  </g>
</svg>
