<svg xmlns="http://www.w3.org/2000/svg" width="215.176" height="177.478" viewBox="0 0 215.176 177.478">
  <g id="Gruppe_1" data-name="Gruppe 1" transform="translate(-223.824 -37)">
    <line id="Linie_1" data-name="Linie 1" x2="92" y2="53" transform="translate(328.5 160.5)" fill="none" stroke="#fc0000" stroke-width="2"/>
    <text id="F" transform="translate(429 206)" fill="#fc0000" font-size="20" font-family="SegoeUI, Segoe UI"><tspan x="0" y="0">F</tspan></text>
    <line id="Linie_2" data-name="Linie 2" x1="104" y2="40" transform="translate(224.5 160.5)" fill="none" stroke="red" stroke-width="2"/>
    <text id="l" transform="translate(231 172)" fill="#fc0000" font-size="20" font-family="SegoeUI, Segoe UI"><tspan x="0" y="0">l</tspan></text>
    <line id="Linie_3" data-name="Linie 3" y1="11" x2="12" transform="translate(224.5 189.5)" fill="none" stroke="#fc0000" stroke-width="2"/>
    <line id="Linie_4" data-name="Linie 4" x2="16" transform="translate(224.5 200.5)" fill="none" stroke="red" stroke-width="2"/>
    <line id="Linie_5" data-name="Linie 5" x1="14" y1="3" transform="translate(406.5 210.5)" fill="none" stroke="#fc0000" stroke-width="2"/>
    <line id="Linie_6" data-name="Linie 6" x1="9" y1="9" transform="translate(411.5 203.5)" fill="none" stroke="#fc0000" stroke-width="2"/>
    <line id="Linie_7" data-name="Linie 7" y1="97" transform="translate(328.5 63.5)" fill="none" stroke="#2900ff" stroke-width="2"/>
    <line id="Linie_8" data-name="Linie 8" x1="5" y2="12" transform="translate(323.5 63.5)" fill="none" stroke="#2900ff" stroke-width="2"/>
    <line id="Linie_9" data-name="Linie 9" x2="5" y2="12" transform="translate(328.5 63.5)" fill="none" stroke="#2900ff" stroke-width="2"/>
    <line id="Linie_10" data-name="Linie 10" x1="5" y2="12" transform="translate(323.5 75.5)" fill="none" stroke="#2900ff" stroke-width="2"/>
    <line id="Linie_11" data-name="Linie 11" x2="5" y2="12" transform="translate(328.5 75.5)" fill="none" stroke="#2900ff" stroke-width="2"/>
    <text id="M" transform="translate(348 59)" fill="#2900ff" font-size="20" font-family="SegoeUI, Segoe UI"><tspan x="0" y="0">M</tspan></text>
    <path id="Pfad_1" data-name="Pfad 1" d="M318.23,140c30.769,53.846,54.077,0,54.077,0" transform="translate(-17 13)" fill="none" stroke="#1bb5d5" stroke-width="1"/>
    <line id="Linie_12" data-name="Linie 12" x1="7" y2="6" transform="translate(348.5 152.5)" fill="none" stroke="#1bb5d5" stroke-width="1"/>
    <line id="Linie_13" data-name="Linie 13" y2="8" transform="translate(355.5 152.5)" fill="none" stroke="#1bb5d5" stroke-width="1"/>
    <text id="Drehsinn" transform="translate(366 149)" fill="#47c3dd" font-size="15" font-family="SegoeUI, Segoe UI"><tspan x="0" y="0">Drehsinn</tspan></text>
  </g>
</svg>
