<svg xmlns="http://www.w3.org/2000/svg" xmlns:xlink="http://www.w3.org/1999/xlink" width="153" height="94.5" viewBox="0 0 153 94.5">
  <defs>
    <clipPath id="clip-path">
      <rect width="65.414" height="8.414" fill="none"/>
    </clipPath>
  </defs>
  <g id="Gruppe_2" data-name="Gruppe 2" transform="translate(-602 13.5)">
    <path id="Pfad_1" data-name="Pfad 1" d="M0,92V0" transform="translate(710.5 36.5) rotate(90)" fill="none" stroke="blue" stroke-width="1" stroke-dasharray="2"/>
    <line id="Linie_7" data-name="Linie 7" y1="92" transform="translate(664.5 -13.5)" fill="none" stroke="blue" stroke-width="1" stroke-dasharray="2"/>
    <g id="Gruppe_1" data-name="Gruppe 1">
      <line id="Linie_1" data-name="Linie 1" x2="65.845" transform="translate(631.577 52.5)" fill="none" stroke="#707070" stroke-width="2"/>
      <line id="Linie_3" data-name="Linie 3" y1="15" x2="15" transform="translate(649.5 37.5)" fill="none" stroke="#707070" stroke-width="2"/>
      <line id="Linie_4" data-name="Linie 4" x2="15" y2="15" transform="translate(664.5 37.5)" fill="none" stroke="#707070" stroke-width="2"/>
      <g id="Wiederholungsraster_1" data-name="Wiederholungsraster 1" transform="translate(631.793 51.793)" clip-path="url(#clip-path)">
        <g transform="translate(-631.793 -58.793)">
          <line id="Linie_5" data-name="Linie 5" x1="7" y2="7" transform="translate(632.5 59.5)" fill="none" stroke="#707070" stroke-width="2"/>
        </g>
        <g transform="translate(-624.793 -58.793)">
          <line id="Linie_5-2" data-name="Linie 5" x1="7" y2="7" transform="translate(632.5 59.5)" fill="none" stroke="#707070" stroke-width="2"/>
        </g>
        <g transform="translate(-617.793 -58.793)">
          <line id="Linie_5-3" data-name="Linie 5" x1="7" y2="7" transform="translate(632.5 59.5)" fill="none" stroke="#707070" stroke-width="2"/>
        </g>
        <g transform="translate(-610.793 -58.793)">
          <line id="Linie_5-4" data-name="Linie 5" x1="7" y2="7" transform="translate(632.5 59.5)" fill="none" stroke="#707070" stroke-width="2"/>
        </g>
        <g transform="translate(-603.793 -58.793)">
          <line id="Linie_5-5" data-name="Linie 5" x1="7" y2="7" transform="translate(632.5 59.5)" fill="none" stroke="#707070" stroke-width="2"/>
        </g>
        <g transform="translate(-596.793 -58.793)">
          <line id="Linie_5-6" data-name="Linie 5" x1="7" y2="7" transform="translate(632.5 59.5)" fill="none" stroke="#707070" stroke-width="2"/>
        </g>
        <g transform="translate(-589.793 -58.793)">
          <line id="Linie_5-7" data-name="Linie 5" x1="7" y2="7" transform="translate(632.5 59.5)" fill="none" stroke="#707070" stroke-width="2"/>
        </g>
        <g transform="translate(-582.793 -58.793)">
          <line id="Linie_5-8" data-name="Linie 5" x1="7" y2="7" transform="translate(632.5 59.5)" fill="none" stroke="#707070" stroke-width="2"/>
        </g>
        <g transform="translate(-575.793 -58.793)">
          <line id="Linie_5-9" data-name="Linie 5" x1="7" y2="7" transform="translate(632.5 59.5)" fill="none" stroke="#707070" stroke-width="2"/>
        </g>
        <g transform="translate(-568.793 -58.793)">
          <line id="Linie_5-10" data-name="Linie 5" x1="7" y2="7" transform="translate(632.5 59.5)" fill="none" stroke="#707070" stroke-width="2"/>
        </g>
      </g>
      <g id="Ellipse_1" data-name="Ellipse 1" transform="translate(663 35)" fill="#fff" stroke="#707070" stroke-width="4">
        <circle cx="1.5" cy="1.5" r="1.5" stroke="none"/>
        <circle cx="1.5" cy="1.5" r="0.5" fill="none"/>
      </g>
      <text id="WL1" transform="translate(716 41)" fill="red" font-size="20" font-family="SegoeUI, Segoe UI"><tspan x="0" y="0">WL1</tspan></text>
      <line id="Linie_6" data-name="Linie 6" x1="112" y1="22" transform="translate(607.5 25.5)" fill="none" stroke="red" stroke-width="1"/>
    </g>
    <text id="WL2" transform="translate(602 76)" fill="red" font-size="20" font-family="SegoeUI, Segoe UI"><tspan x="0" y="0">WL2</tspan></text>
    <line id="Linie_8" data-name="Linie 8" y1="82" x2="34" transform="translate(646.5 -3.5)" fill="none" stroke="red" stroke-width="1"/>
  </g>
</svg>
